<svg version="1.1" id="Layer_1" xmlns="http://www.w3.org/2000/svg" xmlns:xlink="http://www.w3.org/1999/xlink" x="0px" y="0px"
	 width="100%" viewBox="0 0 516 192" enable-background="new 0 0 516 192" xml:space="preserve">
<path fill="#FFFFFF" opacity="1.000000" stroke="none" 
	d="
M403.000000,193.000000 
	C268.666656,193.000000 134.833328,193.000000 1.000000,193.000000 
	C1.000000,129.000000 1.000000,65.000000 1.000000,1.000000 
	C173.000000,1.000000 345.000000,1.000000 517.000000,1.000000 
	C517.000000,65.000000 517.000000,129.000000 517.000000,193.000000 
	C479.166656,193.000000 441.333344,193.000000 403.000000,193.000000 
M10.997126,118.500000 
	C10.997145,136.493591 10.980148,154.487228 11.005013,172.480774 
	C11.015950,180.396576 14.314923,183.752441 22.261747,183.753342 
	C179.703827,183.771103 337.145905,183.770630 494.587982,183.755219 
	C502.776123,183.754425 505.996155,180.425980 505.997803,172.131256 
	C506.007843,122.316246 506.006805,72.501244 505.998840,22.686235 
	C505.997467,14.106586 502.868011,10.999840 494.238953,10.999610 
	C337.130096,10.995440 180.021210,10.995632 22.912350,10.999003 
	C14.010046,10.999194 11.001231,14.042318 10.999495,23.034754 
	C10.993411,54.523170 10.997129,86.011581 10.997126,118.500000 
z"/>
<path fill="#15507A" opacity="1.000000" stroke="none" 
	d="
M10.997126,118.000000 
	C10.997129,86.011581 10.993411,54.523170 10.999495,23.034754 
	C11.001231,14.042318 14.010046,10.999194 22.912350,10.999003 
	C180.021210,10.995632 337.130096,10.995440 494.238953,10.999610 
	C502.868011,10.999840 505.997467,14.106586 505.998840,22.686235 
	C506.006805,72.501244 506.007843,122.316246 505.997803,172.131256 
	C505.996155,180.425980 502.776123,183.754425 494.587982,183.755219 
	C337.145905,183.770630 179.703827,183.771103 22.261747,183.753342 
	C14.314923,183.752441 11.015950,180.396576 11.005013,172.480774 
	C10.980148,154.487228 10.997145,136.493591 10.997126,118.000000 
M65.385353,84.282127 
	C63.156162,87.667213 63.824570,90.738480 67.596939,91.760292 
	C70.683754,92.596420 74.268433,92.357262 77.453621,91.712120 
	C78.830460,91.433250 80.784683,88.810463 80.626411,87.471024 
	C80.431648,85.822731 78.417374,83.248055 76.991402,83.109276 
	C73.307587,82.750740 69.514847,83.511353 64.982033,83.108017 
	C67.386749,81.938347 69.717056,80.022804 72.213615,79.773727 
	C75.962143,79.399757 78.457047,78.456009 78.348839,74.211388 
	C84.976486,74.211388 91.133835,74.283127 97.288696,74.189926 
	C102.747299,74.107269 109.647285,75.797104 113.267151,73.124100 
	C117.137764,70.265938 117.751572,63.140919 120.148811,58.048702 
	C120.794907,56.676273 122.707550,55.109501 124.120430,55.026852 
	C129.930740,54.686954 135.783127,54.692448 141.595505,55.014328 
	C143.122482,55.098892 145.181137,56.434711 145.924454,57.785412 
	C148.161972,61.851276 149.632645,66.342522 151.911743,70.380379 
	C152.751694,71.868538 154.929504,73.261909 156.642288,73.463211 
	C160.520157,73.918983 164.488297,73.606598 168.502777,73.606598 
	C168.502777,95.858299 168.502777,117.440567 168.502777,139.031036 
	C140.333786,139.031036 112.452080,139.031036 84.434669,139.031036 
	C83.552452,123.697563 85.144035,108.600624 83.585526,93.654671 
	C82.761925,93.653198 81.938324,93.651726 81.114723,93.650253 
	C80.296860,108.685097 81.165894,123.798035 80.638763,138.899841 
	C72.766899,140.628967 64.547836,137.656403 57.217434,141.697708 
	C59.160343,142.788788 61.043056,143.019318 62.925919,143.020508 
	C97.407318,143.042175 131.889145,142.956192 166.369644,143.134323 
	C170.851151,143.157471 172.399765,142.154236 172.324905,137.390411 
	C172.042313,119.404549 172.211380,101.411583 172.211395,83.421280 
	C172.211395,70.321098 172.211700,70.234840 158.964844,70.187210 
	C156.250366,70.177452 154.776886,69.512177 153.823120,66.848457 
	C152.368942,62.787102 150.273926,58.956001 148.803909,54.899250 
	C147.701416,51.856655 145.843643,50.969612 142.759293,51.057613 
	C136.101639,51.247570 129.430634,51.254139 122.773621,51.053356 
	C119.795280,50.963531 118.191010,51.946037 117.277802,54.801907 
	C115.861771,59.230206 114.268669,63.616886 112.442009,67.889252 
	C111.928322,69.090729 110.398476,70.548019 109.225746,70.651360 
	C105.304352,70.996902 101.333595,70.782387 96.721687,70.782387 
	C99.041145,63.026413 94.248505,63.559967 89.650681,63.773113 
	C87.656044,63.865578 85.653557,63.788620 83.654633,63.788620 
	C74.577827,63.788631 74.582977,63.788746 74.378006,73.105255 
	C74.360619,73.895363 74.212402,74.682594 74.136086,75.370857 
	C60.213772,78.339729 56.964600,82.438690 56.963783,96.714653 
	C56.963158,107.708733 56.943516,118.702881 56.984783,129.696808 
	C56.991192,131.404022 57.278378,133.110168 57.435722,134.816818 
	C58.082775,134.918808 58.729828,135.020798 59.376884,135.122787 
	C59.786964,133.380295 60.536041,131.640945 60.552219,129.894806 
	C60.658691,118.401985 60.578575,106.907570 60.629925,95.413994 
	C60.641052,92.923492 60.708309,90.391197 61.162441,87.955086 
	C61.764286,84.726608 63.204823,83.639252 65.385353,84.282127 
M334.670624,66.885994 
	C331.029785,68.598518 327.388977,70.311035 323.109070,72.324158 
	C323.109070,62.609196 323.109070,53.385494 323.109070,43.816544 
	C318.773010,43.816544 314.959442,44.045727 311.186737,43.751373 
	C307.495880,43.463402 306.203491,44.649727 306.309753,48.463650 
	C306.560242,57.448822 306.392242,66.445679 306.391998,75.437805 
	C306.391571,92.089897 306.389709,108.741989 306.389221,125.394081 
	C306.389160,127.722336 305.940765,130.308563 309.603607,130.269943 
	C313.902588,130.224594 318.202423,130.259323 322.617554,130.259323 
	C323.039154,128.277603 323.368195,126.731049 323.712769,125.111420 
	C342.136810,133.707062 355.201080,132.754272 365.097046,122.261177 
	C374.669800,112.110878 376.665833,93.110321 369.452759,80.798668 
	C362.734009,69.330681 348.953033,63.597027 334.670624,66.885994 
M444.930664,153.940979 
	C446.469177,152.498215 448.702637,151.344040 449.439880,149.568558 
	C457.781158,129.480209 465.899017,109.299049 474.063629,89.137459 
	C476.900208,82.132896 479.700409,75.113617 482.925293,67.085114 
	C478.985260,67.085114 476.067688,67.035072 473.152283,67.093826 
	C460.933289,67.340073 464.163666,65.050247 459.851807,76.525482 
	C456.166382,86.333534 452.585785,96.180977 448.634216,106.890800 
	C447.411896,104.187714 446.591919,102.561226 445.927277,100.873566 
	C442.154022,91.292465 438.496063,81.664780 434.601074,72.133797 
	C433.851624,70.299896 432.343292,67.539558 430.976654,67.410324 
	C425.317535,66.875130 419.578400,67.185745 413.168854,67.185745 
	C414.092072,69.553101 414.619965,71.082954 415.274078,72.556755 
	C421.943237,87.582420 428.181183,102.824165 435.508148,117.522736 
	C439.151825,124.832397 439.456787,130.995651 435.559601,138.054718 
	C432.973541,142.738892 431.469025,148.020187 429.117859,153.948166 
	C434.830444,153.948166 439.434967,153.948166 444.930664,153.940979 
M241.903549,107.386726 
	C248.608994,94.311783 255.314423,81.236832 262.578827,67.071938 
	C255.912018,67.071938 250.480789,66.882759 245.083298,67.225227 
	C243.949890,67.297134 242.596069,69.152168 241.933273,70.479820 
	C238.964279,76.426872 236.229965,82.490601 233.365936,88.490738 
	C232.043335,91.261551 230.617630,93.983154 228.731400,97.736481 
	C227.421371,95.168297 226.652390,93.756332 225.968658,92.304214 
	C222.569351,85.084641 219.238358,77.832298 215.764679,70.648865 
	C215.153397,69.384727 214.027649,67.479485 213.054947,67.426636 
	C207.393509,67.119019 201.706833,67.276039 195.207092,67.276039 
	C206.554626,89.418282 217.326523,110.437256 228.212769,131.679398 
	C229.339767,130.785995 229.875305,130.562927 230.081863,130.167862 
	C233.930801,122.806282 237.740570,115.424248 241.903549,107.386726 
M405.058472,96.500000 
	C405.058472,79.074768 405.058472,61.649544 405.058472,43.829002 
	C400.677429,43.829002 396.854370,44.117050 393.094360,43.753498 
	C388.741699,43.332645 387.804779,45.157173 387.832031,49.159149 
	C387.987305,71.973206 387.906647,94.788857 387.906311,117.603966 
	C387.906097,130.680664 387.904266,130.570679 400.930145,130.336197 
	C404.243256,130.276581 405.194672,129.215958 405.129395,125.975883 
	C404.938202,116.487297 405.059570,106.992416 405.058472,96.500000 
M284.415100,67.085739 
	C281.590210,67.081635 278.761475,67.168266 275.941559,67.047691 
	C273.172455,66.929291 272.084534,68.093697 272.093414,70.866913 
	C272.153198,89.477783 272.070496,108.089516 272.260101,126.698662 
	C272.272278,127.890640 274.096924,129.987381 275.213867,130.083115 
	C279.754486,130.472321 284.347961,130.245026 288.701569,130.245026 
	C289.098053,129.065506 289.391693,128.598938 289.392090,128.132126 
	C289.408691,108.856956 289.341248,89.581444 289.448578,70.306892 
	C289.466736,67.045891 287.785431,66.826736 284.415100,67.085739 
M128.123703,83.926697 
	C133.730164,86.128639 139.336609,88.330574 144.943069,90.532516 
	C145.219360,90.235245 145.495667,89.937973 145.771957,89.640701 
	C144.284256,88.123955 142.981171,86.349159 141.279373,85.131668 
	C128.715912,76.143494 111.112022,79.168884 101.814728,91.809029 
	C92.457733,104.530334 95.121941,121.906593 107.936829,131.738205 
	C119.810616,140.847794 137.988586,138.536987 147.330551,126.616982 
	C153.759018,118.414505 155.301239,109.246109 151.983368,99.368973 
	C151.662857,98.414848 150.287720,97.815002 149.402145,97.050690 
	C149.183075,98.174057 148.787048,99.299278 148.798767,100.420235 
	C148.808838,101.383270 149.320694,102.332947 149.548996,103.303047 
	C152.240768,114.740479 145.558777,127.650475 134.752899,131.910828 
	C124.740250,135.858414 114.213577,133.767120 107.123955,126.421875 
	C99.774948,118.807884 97.792412,107.646851 102.118805,98.244591 
	C106.635841,88.428032 115.440208,83.384140 128.123703,83.926697 
M105.040016,100.759796 
	C101.777634,111.103554 104.756485,120.747551 112.977196,126.456230 
	C120.377769,131.595413 130.557755,131.359406 137.727036,125.882431 
	C145.386902,120.030685 148.388535,110.189873 145.003632,101.333763 
	C141.710236,92.717064 135.167847,87.758064 126.137611,87.273735 
	C116.631157,86.763863 109.644081,91.523872 105.040016,100.759796 
M271.590027,52.225143 
	C273.547028,60.020672 280.985962,63.124939 286.557709,58.459629 
	C289.848633,55.704086 290.970032,52.013142 289.412445,48.217232 
	C287.829498,44.359489 284.637146,41.828484 280.089874,42.125912 
	C275.539978,42.423500 272.471008,45.893002 271.590027,52.225143 
M142.128036,66.982857 
	C142.722000,64.178421 143.600372,61.380306 143.662964,58.564056 
	C143.675049,58.019775 140.517883,56.989754 138.786377,56.902256 
	C134.149323,56.667942 129.486938,56.966244 124.845284,56.782948 
	C120.465797,56.610004 121.236855,59.609463 121.200691,62.179268 
	C121.165657,64.667557 120.697571,67.255730 124.757744,67.070953 
	C130.225540,66.822105 135.713120,67.007919 142.128036,66.982857 
M98.249741,80.115463 
	C94.725212,78.133827 92.007767,79.302467 90.524460,82.695572 
	C89.149544,85.840759 90.704109,88.545578 93.792374,89.309677 
	C95.473572,89.725632 98.144844,88.871010 99.412109,87.619743 
	C101.573723,85.485435 101.021294,82.771545 98.249741,80.115463 
z"/>
<path fill="#FAFBFC" opacity="1.000000" stroke="none" 
	d="
M335.078400,66.776337 
	C348.953033,63.597027 362.734009,69.330681 369.452759,80.798668 
	C376.665833,93.110321 374.669800,112.110878 365.097046,122.261177 
	C355.201080,132.754272 342.136810,133.707062 323.712769,125.111420 
	C323.368195,126.731049 323.039154,128.277603 322.617554,130.259323 
	C318.202423,130.259323 313.902588,130.224594 309.603607,130.269943 
	C305.940765,130.308563 306.389160,127.722336 306.389221,125.394081 
	C306.389709,108.741989 306.391571,92.089897 306.391998,75.437805 
	C306.392242,66.445679 306.560242,57.448822 306.309753,48.463650 
	C306.203491,44.649727 307.495880,43.463402 311.186737,43.751373 
	C314.959442,44.045727 318.773010,43.816544 323.109070,43.816544 
	C323.109070,53.385494 323.109070,62.609196 323.109070,72.324158 
	C327.388977,70.311035 331.029785,68.598518 335.078400,66.776337 
M356.561951,93.426353 
	C353.755737,89.913551 351.665039,84.967468 348.014862,83.145218 
	C334.809113,76.552620 322.183899,85.602615 322.986389,100.405975 
	C323.576233,111.286972 332.757629,118.235237 343.254120,115.744118 
	C353.384399,113.339920 357.658295,106.518448 356.561951,93.426353 
z"/>
<path fill="#FBFCFD" opacity="1.000000" stroke="none" 
	d="
M444.485077,153.944580 
	C439.434967,153.948166 434.830444,153.948166 429.117859,153.948166 
	C431.469025,148.020187 432.973541,142.738892 435.559601,138.054718 
	C439.456787,130.995651 439.151825,124.832397 435.508148,117.522736 
	C428.181183,102.824165 421.943237,87.582420 415.274078,72.556755 
	C414.619965,71.082954 414.092072,69.553101 413.168854,67.185745 
	C419.578400,67.185745 425.317535,66.875130 430.976654,67.410324 
	C432.343292,67.539558 433.851624,70.299896 434.601074,72.133797 
	C438.496063,81.664780 442.154022,91.292465 445.927277,100.873566 
	C446.591919,102.561226 447.411896,104.187714 448.634216,106.890800 
	C452.585785,96.180977 456.166382,86.333534 459.851807,76.525482 
	C464.163666,65.050247 460.933289,67.340073 473.152283,67.093826 
	C476.067688,67.035072 478.985260,67.085114 482.925293,67.085114 
	C479.700409,75.113617 476.900208,82.132896 474.063629,89.137459 
	C465.899017,109.299049 457.781158,129.480209 449.439880,149.568558 
	C448.702637,151.344040 446.469177,152.498215 444.485077,153.944580 
z"/>
<path fill="#FAFBFC" opacity="1.000000" stroke="none" 
	d="
M241.731049,107.716614 
	C237.740570,115.424248 233.930801,122.806282 230.081863,130.167862 
	C229.875305,130.562927 229.339767,130.785995 228.212769,131.679398 
	C217.326523,110.437256 206.554626,89.418282 195.207092,67.276039 
	C201.706833,67.276039 207.393509,67.119019 213.054947,67.426636 
	C214.027649,67.479485 215.153397,69.384727 215.764679,70.648865 
	C219.238358,77.832298 222.569351,85.084641 225.968658,92.304214 
	C226.652390,93.756332 227.421371,95.168297 228.731400,97.736481 
	C230.617630,93.983154 232.043335,91.261551 233.365936,88.490738 
	C236.229965,82.490601 238.964279,76.426872 241.933273,70.479820 
	C242.596069,69.152168 243.949890,67.297134 245.083298,67.225227 
	C250.480789,66.882759 255.912018,67.071938 262.578827,67.071938 
	C255.314423,81.236832 248.608994,94.311783 241.731049,107.716614 
z"/>
<path fill="#ECF1F4" opacity="1.000000" stroke="none" 
	d="
M65.946632,83.662727 
	C63.204823,83.639252 61.764286,84.726608 61.162441,87.955086 
	C60.708309,90.391197 60.641052,92.923492 60.629925,95.413994 
	C60.578575,106.907570 60.658691,118.401985 60.552219,129.894806 
	C60.536041,131.640945 59.786964,133.380295 59.376884,135.122787 
	C58.729828,135.020798 58.082775,134.918808 57.435722,134.816818 
	C57.278378,133.110168 56.991192,131.404022 56.984783,129.696808 
	C56.943516,118.702881 56.963158,107.708733 56.963783,96.714653 
	C56.964600,82.438690 60.213772,78.339729 74.136086,75.370857 
	C74.212402,74.682594 74.360619,73.895363 74.378006,73.105255 
	C74.582977,63.788746 74.577827,63.788631 83.654633,63.788620 
	C85.653557,63.788620 87.656044,63.865578 89.650681,63.773113 
	C94.248505,63.559967 99.041145,63.026413 96.721687,70.782387 
	C101.333595,70.782387 105.304352,70.996902 109.225746,70.651360 
	C110.398476,70.548019 111.928322,69.090729 112.442009,67.889252 
	C114.268669,63.616886 115.861771,59.230206 117.277802,54.801907 
	C118.191010,51.946037 119.795280,50.963531 122.773621,51.053356 
	C129.430634,51.254139 136.101639,51.247570 142.759293,51.057613 
	C145.843643,50.969612 147.701416,51.856655 148.803909,54.899250 
	C150.273926,58.956001 152.368942,62.787102 153.823120,66.848457 
	C154.776886,69.512177 156.250366,70.177452 158.964844,70.187210 
	C172.211700,70.234840 172.211395,70.321098 172.211395,83.421280 
	C172.211380,101.411583 172.042313,119.404549 172.324905,137.390411 
	C172.399765,142.154236 170.851151,143.157471 166.369644,143.134323 
	C131.889145,142.956192 97.407318,143.042175 62.925919,143.020508 
	C61.043056,143.019318 59.160343,142.788788 57.217434,141.697708 
	C64.547836,137.656403 72.766899,140.628967 80.638763,138.899841 
	C81.165894,123.798035 80.296860,108.685097 81.114723,93.650253 
	C81.938324,93.651726 82.761925,93.653198 83.585526,93.654671 
	C85.144035,108.600624 83.552452,123.697563 84.434669,139.031036 
	C112.452080,139.031036 140.333786,139.031036 168.502777,139.031036 
	C168.502777,117.440567 168.502777,95.858299 168.502777,73.606598 
	C164.488297,73.606598 160.520157,73.918983 156.642288,73.463211 
	C154.929504,73.261909 152.751694,71.868538 151.911743,70.380379 
	C149.632645,66.342522 148.161972,61.851276 145.924454,57.785412 
	C145.181137,56.434711 143.122482,55.098892 141.595505,55.014328 
	C135.783127,54.692448 129.930740,54.686954 124.120430,55.026852 
	C122.707550,55.109501 120.794907,56.676273 120.148811,58.048702 
	C117.751572,63.140919 117.137764,70.265938 113.267151,73.124100 
	C109.647285,75.797104 102.747299,74.107269 97.288696,74.189926 
	C91.133835,74.283127 84.976486,74.211388 78.348839,74.211388 
	C78.457047,78.456009 75.962143,79.399757 72.213615,79.773727 
	C69.717056,80.022804 67.386749,81.938347 65.394363,83.430634 
	C65.806694,83.753250 65.946632,83.662727 65.946632,83.662727 
M88.328880,67.002991 
	C84.901756,67.002991 81.474632,67.002991 77.991020,67.002991 
	C78.514420,71.288956 82.059509,71.948227 93.532509,70.392601 
	C94.775116,65.922836 91.390266,67.244049 88.328880,67.002991 
z"/>
<path fill="#FDFEFE" opacity="1.000000" stroke="none" 
	d="
M405.058472,97.000000 
	C405.059570,106.992416 404.938202,116.487297 405.129395,125.975883 
	C405.194672,129.215958 404.243256,130.276581 400.930145,130.336197 
	C387.904266,130.570679 387.906097,130.680664 387.906311,117.603966 
	C387.906647,94.788857 387.987305,71.973206 387.832031,49.159149 
	C387.804779,45.157173 388.741699,43.332645 393.094360,43.753498 
	C396.854370,44.117050 400.677429,43.829002 405.058472,43.829002 
	C405.058472,61.649544 405.058472,79.074768 405.058472,97.000000 
z"/>
<path fill="#FBFCFD" opacity="1.000000" stroke="none" 
	d="
M284.896637,67.085594 
	C287.785431,66.826736 289.466736,67.045891 289.448578,70.306892 
	C289.341248,89.581444 289.408691,108.856956 289.392090,128.132126 
	C289.391693,128.598938 289.098053,129.065506 288.701569,130.245026 
	C284.347961,130.245026 279.754486,130.472321 275.213867,130.083115 
	C274.096924,129.987381 272.272278,127.890640 272.260101,126.698662 
	C272.070496,108.089516 272.153198,89.477783 272.093414,70.866913 
	C272.084534,68.093697 273.172455,66.929291 275.941559,67.047691 
	C278.761475,67.168266 281.590210,67.081635 284.896637,67.085594 
z"/>
<path fill="#EDF2F5" opacity="1.000000" stroke="none" 
	d="
M127.678055,83.892044 
	C115.440208,83.384140 106.635841,88.428032 102.118805,98.244591 
	C97.792412,107.646851 99.774948,118.807884 107.123955,126.421875 
	C114.213577,133.767120 124.740250,135.858414 134.752899,131.910828 
	C145.558777,127.650475 152.240768,114.740479 149.548996,103.303047 
	C149.320694,102.332947 148.808838,101.383270 148.798767,100.420235 
	C148.787048,99.299278 149.183075,98.174057 149.402145,97.050690 
	C150.287720,97.815002 151.662857,98.414848 151.983368,99.368973 
	C155.301239,109.246109 153.759018,118.414505 147.330551,126.616982 
	C137.988586,138.536987 119.810616,140.847794 107.936829,131.738205 
	C95.121941,121.906593 92.457733,104.530334 101.814728,91.809029 
	C111.112022,79.168884 128.715912,76.143494 141.279373,85.131668 
	C142.981171,86.349159 144.284256,88.123955 145.771957,89.640701 
	C145.495667,89.937973 145.219360,90.235245 144.943069,90.532516 
	C139.336609,88.330574 133.730164,86.128639 127.678055,83.892044 
z"/>
<path fill="#F1F5F7" opacity="1.000000" stroke="none" 
	d="
M105.180878,100.405540 
	C109.644081,91.523872 116.631157,86.763863 126.137611,87.273735 
	C135.167847,87.758064 141.710236,92.717064 145.003632,101.333763 
	C148.388535,110.189873 145.386902,120.030685 137.727036,125.882431 
	C130.557755,131.359406 120.377769,131.595413 112.977196,126.456230 
	C104.756485,120.747551 101.777634,111.103554 105.180878,100.405540 
M129.287735,125.990143 
	C139.986954,122.351601 144.998901,113.579056 142.043625,103.663147 
	C139.329163,94.555229 130.061264,89.031090 121.057625,91.154449 
	C111.779663,93.342499 105.589233,102.802742 107.461044,111.932816 
	C109.526833,122.009071 118.250587,127.892693 129.287735,125.990143 
z"/>
<path fill="#F8FAFB" opacity="1.000000" stroke="none" 
	d="
M271.550659,51.856018 
	C272.471008,45.893002 275.539978,42.423500 280.089874,42.125912 
	C284.637146,41.828484 287.829498,44.359489 289.412445,48.217232 
	C290.970032,52.013142 289.848633,55.704086 286.557709,58.459629 
	C280.985962,63.124939 273.547028,60.020672 271.550659,51.856018 
z"/>
<path fill="#F8FAFB" opacity="1.000000" stroke="none" 
	d="
M141.660126,66.995026 
	C135.713120,67.007919 130.225540,66.822105 124.757744,67.070953 
	C120.697571,67.255730 121.165657,64.667557 121.200691,62.179268 
	C121.236855,59.609463 120.465797,56.610004 124.845284,56.782948 
	C129.486938,56.966244 134.149323,56.667942 138.786377,56.902256 
	C140.517883,56.989754 143.675049,58.019775 143.662964,58.564056 
	C143.600372,61.380306 142.722000,64.178421 141.660126,66.995026 
M128.665970,59.977074 
	C127.385803,60.538570 126.105644,61.100067 124.825478,61.661568 
	C126.145927,62.396576 127.413071,63.613811 128.797852,63.766903 
	C131.744461,64.092659 134.781174,64.103783 137.720474,63.746437 
	C138.879807,63.605488 139.877823,62.137653 140.949295,61.274017 
	C140.631653,60.841667 140.314011,60.409317 139.996368,59.976967 
	C136.535461,59.976967 133.074570,59.976967 128.665970,59.977074 
z"/>
<path fill="#F3F6F8" opacity="1.000000" stroke="none" 
	d="
M65.665993,83.972427 
	C65.946632,83.662727 65.806694,83.753250 65.786148,83.789131 
	C69.514847,83.511353 73.307587,82.750740 76.991402,83.109276 
	C78.417374,83.248055 80.431648,85.822731 80.626411,87.471024 
	C80.784683,88.810463 78.830460,91.433250 77.453621,91.712120 
	C74.268433,92.357262 70.683754,92.596420 67.596939,91.760292 
	C63.824570,90.738480 63.156162,87.667213 65.665993,83.972427 
M76.843285,88.353912 
	C75.508621,85.437035 71.368713,85.103172 67.855507,88.809242 
	C70.594368,88.809242 73.333221,88.809242 76.843285,88.353912 
z"/>
<path fill="#E8EEF2" opacity="1.000000" stroke="none" 
	d="
M98.553848,80.337509 
	C101.021294,82.771545 101.573723,85.485435 99.412109,87.619743 
	C98.144844,88.871010 95.473572,89.725632 93.792374,89.309677 
	C90.704109,88.545578 89.149544,85.840759 90.524460,82.695572 
	C92.007767,79.302467 94.725212,78.133827 98.553848,80.337509 
z"/>
<path fill="#17527B" opacity="1.000000" stroke="none" 
	d="
M356.644531,93.833313 
	C357.658295,106.518448 353.384399,113.339920 343.254120,115.744118 
	C332.757629,118.235237 323.576233,111.286972 322.986389,100.405975 
	C322.183899,85.602615 334.809113,76.552620 348.014862,83.145218 
	C351.665039,84.967468 353.755737,89.913551 356.644531,93.833313 
z"/>
<path fill="#255C83" opacity="1.000000" stroke="none" 
	d="
M88.798691,67.003006 
	C91.390266,67.244049 94.775116,65.922836 93.532509,70.392601 
	C82.059509,71.948227 78.514420,71.288956 77.991020,67.002991 
	C81.474632,67.002991 84.901756,67.002991 88.798691,67.003006 
z"/>
<path fill="#17527B" opacity="1.000000" stroke="none" 
	d="
M128.899353,126.059906 
	C118.250587,127.892693 109.526833,122.009071 107.461044,111.932816 
	C105.589233,102.802742 111.779663,93.342499 121.057625,91.154449 
	C130.061264,89.031090 139.329163,94.555229 142.043625,103.663147 
	C144.998901,113.579056 139.986954,122.351601 128.899353,126.059906 
M120.736908,103.460472 
	C120.261803,101.490639 120.042221,99.384995 119.121269,97.652100 
	C118.906898,97.248711 115.586151,97.624023 114.981422,98.514687 
	C114.173126,99.705185 113.983910,102.800545 114.658813,103.208504 
	C116.121803,104.092834 118.302544,103.789764 120.736908,103.460472 
z"/>
<path fill="#255C83" opacity="1.000000" stroke="none" 
	d="
M129.139816,59.977020 
	C133.074570,59.976967 136.535461,59.976967 139.996368,59.976967 
	C140.314011,60.409317 140.631653,60.841667 140.949295,61.274017 
	C139.877823,62.137653 138.879807,63.605488 137.720474,63.746437 
	C134.781174,64.103783 131.744461,64.092659 128.797852,63.766903 
	C127.413071,63.613811 126.145927,62.396576 124.825478,61.661568 
	C126.105644,61.100067 127.385803,60.538570 129.139816,59.977020 
z"/>
<path fill="#3C6E91" opacity="1.000000" stroke="none" 
	d="
M76.457687,88.581573 
	C73.333221,88.809242 70.594368,88.809242 67.855507,88.809242 
	C71.368713,85.103172 75.508621,85.437035 76.457687,88.581573 
z"/>
<path fill="#EDF2F5" opacity="1.000000" stroke="none" 
	d="
M120.463348,103.716362 
	C118.302544,103.789764 116.121803,104.092834 114.658813,103.208504 
	C113.983910,102.800545 114.173126,99.705185 114.981422,98.514687 
	C115.586151,97.624023 118.906898,97.248711 119.121269,97.652100 
	C120.042221,99.384995 120.261803,101.490639 120.463348,103.716362 
z"/>
</svg>